/* XPM */
static char * optionmatrix_console_32x32_xpm[] = {
"32 32 121 2",
"  	g None",
". 	g #575757",
"+ 	g #595959",
"@ 	g #585858",
"# 	g #5D5D5D",
"$ 	g #616161",
"% 	g #535353",
"& 	g #606060",
"* 	g #515151",
"= 	g #5F5F5F",
"- 	g #444444",
"; 	g #5A5A5A",
"> 	g #434343",
", 	g #626262",
"' 	g #555555",
") 	g #636363",
"! 	g #343434",
"~ 	g #676767",
"{ 	g #656565",
"] 	g #646464",
"^ 	g #6A6A6A",
"/ 	g #686868",
"( 	g #6B6B6B",
"_ 	g #6E6E6E",
": 	g #6C6C6C",
"< 	g #666666",
"[ 	g #2A2A2A",
"} 	g #777777",
"| 	g #747474",
"1 	g #707070",
"2 	g #696969",
"3 	g #AAAAAA",
"4 	g #383838",
"5 	g #7E7E7E",
"6 	g #7B7B7B",
"7 	g #767676",
"8 	g #737373",
"9 	g #878787",
"0 	g #939393",
"a 	g #C9C9C9",
"b 	g #959595",
"c 	g #787878",
"d 	g #888888",
"e 	g #838383",
"f 	g #797979",
"g 	g #7A7A7A",
"h 	g #BBBBBB",
"i 	g #D1D1D1",
"j 	g #D0D0D0",
"k 	g #CFCFCF",
"l 	g #CECECE",
"m 	g #A7A7A7",
"n 	g #4F4F4F",
"o 	g #898989",
"p 	g #8B8B8B",
"q 	g #7C7C7C",
"r 	g #757575",
"s 	g #A6A6A6",
"t 	g #D6D6D6",
"u 	g #989898",
"v 	g #CCCCCC",
"w 	g #999999",
"x 	g #969696",
"y 	g #5B5B5B",
"z 	g #5E5E5E",
"A 	g #4C4C4C",
"B 	g #BEBEBE",
"C 	g #CDCDCD",
"D 	g #ABABAB",
"E 	g #D4D4D4",
"F 	g #BCBCBC",
"G 	g #454545",
"H 	g #CACACA",
"I 	g #9B9B9B",
"J 	g #727272",
"K 	g #808080",
"L 	g #818181",
"M 	g #424242",
"N 	g #D3D3D3",
"O 	g #D2D2D2",
"P 	g #9A9A9A",
"Q 	g #6D6D6D",
"R 	g #525252",
"S 	g #505050",
"T 	g #D7D7D7",
"U 	g #B7B7B7",
"V 	g #8A8A8A",
"W 	g #6F6F6F",
"X 	g #4A4A4A",
"Y 	g #858585",
"Z 	g #C0C0C0",
"` 	g #D9D9D9",
" .	g #DFDFDF",
"..	g #7D7D7D",
"+.	g #717171",
"@.	g #3B3B3B",
"#.	g #3C3C3C",
"$.	g #DDDDDD",
"%.	g #474747",
"&.	g #979797",
"*.	g #929292",
"=.	g #DEDEDE",
"-.	g #E1E1E1",
";.	g #8F8F8F",
">.	g #8E8E8E",
",.	g #393939",
"'.	g #D5D5D5",
").	g #E3E3E3",
"!.	g #C2C2C2",
"~.	g #484848",
"{.	g #545454",
"].	g #E6E6E6",
"^.	g #B4B4B4",
"/.	g #E4E4E4",
"(.	g #B0B0B0",
"_.	g #909090",
":.	g #414141",
"<.	g #565656",
"[.	g #464646",
"}.	g #9D9D9D",
"|.	g #3F3F3F",
"                            . + @ .                             ",
"                        @ # $ $ $ $ # %                         ",
"                      + & $ $ $ $ $ $ & *                       ",
"                      = $ $ $ $ $ $ $ $ = -                     ",
"                    # $ $ $ $ $ $ $ $ $ $ ;                     ",
"                    $ $ $ $ $ $ $ $ $ $ $ $ >                   ",
"                  # , $ $ $ $ $ $ $ $ $ $ $ '                   ",
"                  ) ) , , $ $ $ $ $ $ $ $ $ = !                 ",
"                # ~ { ] ) , , $ $ $ $ $ $ $ $ >                 ",
"                ) ^ / ~ { ] ) , , $ $ $ $ $ $ *                 ",
"                ( _ : ^ / < { ] ) , , $ $ $ $ # [               ",
"                } | 1 _ ( 2 / & 3 ) ) , $ $ $ & 4               ",
"              ^ 5 6 7 8 1 _ 9 0 a b c ) , , $ $ >               ",
"              7 d e 5 f g h i j k k l m < ) , , n               ",
"              o p q r | s t k u v w i i x { ] ) y               ",
"              z . . . A B i s 2 C < D E F / < { , !             ",
"            . . . . . G H i I y i } J K L ( 2 / < M             ",
"            . . . . . A s N O P i L g 7 8 1 Q ^ 2 R             ",
"            . . . . . . S H t t t T U V f 7 J W Q )             ",
"            . . . . . . ' X Y Z ` `  . .I ..f r +._ @.          ",
"          . . . . . . . . . ' #.j p ` $.O W : / ) z %.          ",
"          . . . . . . < &.&.~ G i n *.=.=.$ . . . . %           ",
"          . . . . . . = -.-.;.G E . >.-. .z . . . . . ,.        ",
"        . . . . . . . G '.).N c ` o '.).!.. . . . . . ~.        ",
"        . . . . . . . {.2 ).].].].].].T W . . . . . . '         ",
"        . . . . . . . . * ' >.^./.(._.z . . . . . . . . :.      ",
"      . . . . . . . . . . . . M $.<.. . . . . . . . . . *       ",
"      . . . . . . . . . . . . [.}.. . . . . . . . . . . . |.    ",
"    . . . . . . . . . . . . . . . . . . . . . . . . . . . *     ",
"  . . . . . . . . . . . . . . . . . . . . . . . . . . . . . [.  ",
"  . . . . . . . . . . . . . . . . . . . . . . . . . . . . . <.  ",
"<.<.<.' ' ' ' ' ' ' ' ' ' ' ' ' {.{.{.{.{.{.{.% % % % % % R R * "};
