/* XPM */
static char * optionmatrix_32x32_xpm[] = {
"32 32 222 2",
"  	c None",
". 	c #0171BC",
"+ 	c #0373BD",
"@ 	c #0372BC",
"# 	c #0171BB",
"$ 	c #0272BD",
"% 	c #0A76BE",
"& 	c #0F79C0",
"* 	c #1079C0",
"= 	c #026CB2",
"- 	c #0E78C0",
"; 	c #0369AC",
"> 	c #0D78BF",
", 	c #015891",
"' 	c #0976BE",
") 	c #0872B9",
"! 	c #1179C0",
"~ 	c #01578D",
"{ 	c #0B76BF",
"] 	c #127AC0",
"^ 	c #076DB0",
"/ 	c #137BC1",
"( 	c #147BC1",
"_ 	c #137AC1",
": 	c #00456F",
"< 	c #0A76BF",
"[ 	c #197EC2",
"} 	c #177DC2",
"| 	c #157CC1",
"1 	c #03578E",
"2 	c #1E81C4",
"3 	c #1B7FC3",
"4 	c #0768A8",
"5 	c #2082C4",
"6 	c #2484C5",
"7 	c #2182C4",
"8 	c #1D81C4",
"9 	c #187EC2",
"0 	c #167CC2",
"a 	c #157BC1",
"b 	c #0B76BD",
"c 	c #003757",
"d 	c #318CC9",
"e 	c #2D89C7",
"f 	c #2886C6",
"g 	c #1D80C3",
"h 	c #1A7FC3",
"i 	c #1C74B1",
"j 	c #B1B94F",
"k 	c #0F78C0",
"l 	c #004976",
"m 	c #1D81C3",
"n 	c #3D92CC",
"o 	c #378FCA",
"p 	c #318BC9",
"q 	c #2C89C7",
"r 	c #2786C6",
"s 	c #2584C3",
"t 	c #5F9A95",
"u 	c #8DA05F",
"v 	c #F4D420",
"w 	c #7FA676",
"x 	c #418DA1",
"y 	c #03578C",
"z 	c #308BC9",
"A 	c #4B9ACF",
"B 	c #4396CD",
"C 	c #3C92CC",
"D 	c #358ECA",
"E 	c #3B8EBF",
"F 	c #CBC751",
"G 	c #FFDA26",
"H 	c #FFDA22",
"I 	c #FFD91E",
"J 	c #FFD91B",
"K 	c #FFD819",
"L 	c #A8B657",
"M 	c #197DBE",
"N 	c #0765A2",
"O 	c #4C9BD0",
"P 	c #4F9DD1",
"Q 	c #3990CB",
"R 	c #2E8AC8",
"S 	c #AAB168",
"T 	c #FFDE3C",
"U 	c #F6D83A",
"V 	c #A3A051",
"W 	c #F4D532",
"X 	c #ADA03F",
"Y 	c #FEDA27",
"Z 	c #FFDA24",
"` 	c #81A77A",
" .	c #0C73B8",
"..	c #0C77BF",
"+.	c #0071BC",
"@.	c #0162A7",
"#.	c #E8C71C",
"$.	c #99B57F",
"%.	c #3877A7",
"&.	c #EBD74D",
"*.	c #2A78B2",
"=.	c #C7B241",
"-.	c #FFDD34",
";.	c #CEC851",
">.	c #00446D",
",.	c #035898",
"'.	c #F5D325",
").	c #8EAC68",
"!.	c #236CA1",
"~.	c #ECDA5F",
"{.	c #328CC9",
"].	c #567D86",
"^.	c #6E8B7C",
"/.	c #61908E",
"(.	c #187DC2",
"_.	c #035589",
":.	c #C2AD35",
"<.	c #FFDC31",
"[.	c #FCDB32",
"}.	c #9FA552",
"|.	c #F0DA54",
"1.	c #4294C9",
"2.	c #368FCA",
"3.	c #2B88C7",
"4.	c #2383C5",
"5.	c #1F81C4",
"6.	c #1C80C3",
"7.	c #0B67A4",
"8.	c #365B64",
"9.	c #EFD23D",
"0.	c #FFDE3D",
"a.	c #F2DF67",
"b.	c #ACC399",
"c.	c #539CC0",
"d.	c #2F8BC8",
"e.	c #2A88C7",
"f.	c #2685C5",
"g.	c #2283C4",
"h.	c #157ABE",
"i.	c #006EB7",
"j.	c #1E587B",
"k.	c #8E8C4C",
"l.	c #DFC748",
"m.	c #FFE14A",
"n.	c #FFE14B",
"o.	c #FFE66B",
"p.	c #F7E580",
"q.	c #73ABB7",
"r.	c #3A91CB",
"s.	c #348DCA",
"t.	c #2987C7",
"u.	c #2384C5",
"v.	c #014D7C",
"w.	c #006FB9",
"x.	c #074B81",
"y.	c #EFD857",
"z.	c #959253",
"A.	c #FCE156",
"B.	c #FFE45E",
"C.	c #E5DB76",
"D.	c #2585C5",
"E.	c #2183C5",
"F.	c #015D98",
"G.	c #237CA9",
"H.	c #79A893",
"I.	c #1F7FB1",
"J.	c #065793",
"K.	c #E7DA6B",
"L.	c #0166AD",
"M.	c #9C985A",
"N.	c #FFE562",
"O.	c #147AB5",
"P.	c #006CB4",
"Q.	c #3B6C7F",
"R.	c #FFE76F",
"S.	c #67A19D",
"T.	c #E7DC76",
"U.	c #8B976F",
"V.	c #FDE66F",
"W.	c #0C77B8",
"X.	c #004B7A",
"Y.	c #0B568E",
"Z.	c #EEDB77",
"`.	c #FFE97B",
" +	c #E2DB83",
".+	c #598588",
"++	c #ECE080",
"@+	c #5B9CA5",
"#+	c #EBDB79",
"$+	c #C3CD8A",
"%+	c #005E9B",
"&+	c #006DB7",
"*+	c #5D706B",
"=+	c #FBE887",
"-+	c #FFEB88",
";+	c #E6DE8B",
">+	c #2B85B3",
",+	c #006FB8",
"'+	c #0169B0",
")+	c #2F617F",
"!+	c #8D9477",
"~+	c #C0B87E",
"{+	c #FAE992",
"]+	c #B8B683",
"^+	c #779C94",
"/+	c #1275B3",
"(+	c #00558B",
"_+	c #07538F",
":+	c #E7E3A2",
"<+	c #0070BB",
"[+	c #0069AF",
"}+	c #045998",
"|+	c #8BA79A",
"1+	c #005285",
"2+	c #006AB0",
"3+	c #005C97",
"4+	c #0070BA",
"5+	c #006DB5",
"6+	c #006CB3",
"7+	c #006BB2",
"8+	c #006BB1",
"9+	c #0069AE",
"                            . + @ #                             ",
"                        $ % & * * & % =                         ",
"                      + - * * * * * * - ;                       ",
"                      > * * * * * * * * > ,                     ",
"                    ' * * * * * * * * * * )                     ",
"                    * ! * * * * * * * * * & ~                   ",
"                  { ] ! ! ! * * * * * * * * ^                   ",
"                  / ( _ ] ! ! * * * * * * * > :                 ",
"                < [ } | ( _ ] ! ! * * * * * * 1                 ",
"                / 2 3 [ } | ( _ ] ! ! * * * * 4                 ",
"                5 6 7 8 3 9 0 a / ] ] ! ! * * b c               ",
"                d e f 6 5 g h i j ( / ] ! ! ! k l               ",
"              m n o p q r s t u v w x ( _ ] ! ! y               ",
"              z A B C D E F G H I J K L M ( _ ] N               ",
"              O P Q R e S T U V W X Y Z ` } | (  .              ",
"              ..+.+.+.@.#.Z $.%.&.*.=.-.;.h 9 0 ] >.            ",
"            +.+.+.+.+.,.'.Z ).!.~.{.].^./.5 g h (._.            ",
"            +.+.+.+.+.@.:.<.[.}.|.1.2.p 3.r 4.5.6.7.            ",
"            +.+.+.+.+.+.8.9.0.0.0.a.b.c.D d.e.f.g.h.            ",
"            +.+.+.+.+.+.i.j.k.l.m.n.o.p.q.r.s.R t.u.v.          ",
"          +.+.+.+.+.+.+.+.+.w.x.y.z.A.B.C.D.E.3 / ..F.          ",
"          +.+.+.+.+.+.G.H.H.I.J.K.L.M.N.N.O.+.+.+.+.P.          ",
"          +.+.+.+.+.+.Q.R.R.S.J.T.+.U.R.V.W.+.+.+.+.+.X.        ",
"        +.+.+.+.+.+.+.Y.Z.`. +.+++@+#+`.$++.+.+.+.+.+.%+        ",
"        +.+.+.+.+.+.+.&+*+=+-+-+-+-+-+;+>++.+.+.+.+.+.,+        ",
"        +.+.+.+.+.+.+.+.'+)+!+~+{+]+^+/++.+.+.+.+.+.+.+.(+      ",
"      +.+.+.+.+.+.+.+.+.+.+.+._+:+<++.+.+.+.+.+.+.+.+.+.[+      ",
"      +.+.+.+.+.+.+.+.+.+.+.+.}+|++.+.+.+.+.+.+.+.+.+.+.+.1+    ",
"    +.+.+.+.+.+.+.+.+.+.+.+.+.+.+.+.+.+.+.+.+.+.+.+.+.+.+.2+    ",
"  +.+.+.+.+.+.+.+.+.+.+.+.+.+.+.+.+.+.+.+.+.+.+.+.+.+.+.+.+.3+  ",
"  +.+.+.+.+.+.+.+.+.+.+.+.+.+.+.+.+.+.+.+.+.+.+.+.+.+.+.+.+.<+  ",
"<+4+4+,+,+,+,+,+,+i.i.i.i.i.i.i.5+5+5+5+5+5+5+6+6+6+6+6+6+7+8+9+"};
